<svg width="360" height="360" viewBox="0 0 360 360" fill="none" xmlns="http://www.w3.org/2000/svg">
<path d="M286.935 210.74C273.623 197.428 251.885 197.334 238.479 210.74C225.073 224.146 225.166 245.882 238.479 259.196C251.788 272.504 273.622 272.695 287.028 259.289C289.901 256.416 292.197 252.967 293.922 249.327C299.379 255.937 303.883 263.882 306.654 272.788C306.748 273.457 307.324 274.033 307.896 274.224C308.281 274.415 308.854 274.419 309.142 274.131C309.62 273.846 310.002 273.27 310.099 272.41C310.866 261.686 309.43 250.293 305.6 239.759C302.057 230.09 296.791 221.374 289.609 213.616C288.752 212.558 287.795 211.6 286.935 210.74Z" fill="black"/>
<path d="M150.843 92.6667C141.43 108.971 146.965 129.992 163.384 139.471C179.804 148.951 200.775 143.235 210.189 126.93C219.6 110.631 214.133 89.4912 197.713 80.0116C194.195 77.9803 190.269 76.6544 186.307 75.9308C191.279 68.9486 197.788 62.5418 205.673 57.5602C206.296 57.2966 206.703 56.5911 206.739 55.9889C206.824 55.5674 206.679 55.0136 206.326 54.81C205.928 54.4211 205.273 54.2016 204.416 54.3304C193.859 56.3653 183.226 60.7013 174.043 67.1274C165.62 73.0516 158.564 80.3944 152.93 89.3397C152.129 90.4411 151.451 91.613 150.843 92.6667Z" fill="black"/>
<path d="M90.0744 264.414C106.379 273.827 127.399 268.292 136.879 251.873C146.359 235.453 140.643 214.482 124.338 205.068C108.038 195.657 86.899 201.124 77.4193 217.544C75.388 221.062 74.0622 224.988 73.3385 228.95C66.3563 223.978 59.9495 217.469 54.9679 209.584C54.7043 208.961 53.9988 208.554 53.3966 208.518C52.9751 208.433 52.4213 208.578 52.2177 208.931C51.8288 209.329 51.6093 209.984 51.7381 210.84C53.773 221.398 58.109 232.031 64.5351 241.214C70.4593 249.637 77.8021 256.692 86.7474 262.327C87.8488 263.128 89.0207 263.806 90.0744 264.414Z" fill="black"/>
<path d="M95.8118 127.136C95.8118 138.922 105.367 148.477 117.153 148.477C128.939 148.477 138.494 138.922 138.494 127.136C138.494 115.349 128.939 105.794 117.153 105.794C105.367 105.794 95.8118 115.349 95.8118 127.136Z" fill="black"/>
<path d="M66.9666 170.992C66.9666 182.778 76.5214 192.333 88.3078 192.333C100.094 192.333 109.649 182.778 109.649 170.992C109.649 159.205 100.094 149.65 88.3078 149.65C76.5214 149.65 66.9666 159.205 66.9666 170.992Z" fill="black"/>
<path d="M136.284 284.365C136.284 296.152 145.839 305.706 157.625 305.706C169.411 305.706 178.966 296.152 178.966 284.365C178.966 272.579 169.411 263.024 157.625 263.024C145.839 263.024 136.284 272.579 136.284 284.365Z" fill="black"/>
<path d="M223.07 127.136C223.07 138.922 232.624 148.477 244.411 148.477C256.197 148.477 265.752 138.922 265.752 127.136C265.752 115.349 256.197 105.794 244.411 105.794C232.624 105.794 223.07 115.349 223.07 127.136Z" fill="black"/>
<path d="M252.663 168.891C252.663 180.678 262.218 190.233 274.004 190.233C285.791 190.233 295.345 180.678 295.345 168.891C295.345 157.105 285.791 147.55 274.004 147.55C262.218 147.55 252.663 157.105 252.663 168.891Z" fill="black"/>
<path d="M186.548 284.286C186.548 296.072 196.103 305.627 207.889 305.627C219.676 305.627 229.231 296.072 229.231 284.286C229.231 272.499 219.676 262.944 207.889 262.944C196.103 262.944 186.548 272.499 186.548 284.286Z" fill="black"/>
<path d="M214.058 116.828C217.421 118.196 220.678 119.77 223.816 121.532C224.776 117.995 226.623 114.823 229.103 112.269C224.469 109.66 219.599 107.42 214.535 105.586C214.986 109.3 214.84 113.099 214.058 116.828Z" fill="black"/>
<path d="M146.447 106.214C141.727 108.022 137.183 110.187 132.849 112.674C135.26 115.289 137.026 118.507 137.893 122.077C140.867 120.357 143.952 118.808 147.135 117.443C146.298 113.786 146.055 109.99 146.447 106.214Z" fill="black"/>
<path d="M260.819 140.787C258.528 143.537 255.559 145.702 252.169 147.025C254.083 149.716 255.847 152.52 257.45 155.426C259.729 152.628 262.702 150.418 266.108 149.061C264.482 146.21 262.715 143.449 260.819 140.787Z" fill="black"/>
<path d="M278.576 189.743C277.104 190.065 275.575 190.234 274.007 190.234C271.863 190.234 269.792 189.918 267.84 189.329C268.08 191.962 268.203 194.628 268.203 197.323C268.203 198.605 268.175 199.881 268.12 201.149C271.74 201.724 275.284 202.879 278.598 204.611C278.776 202.205 278.867 199.775 278.867 197.323C278.867 194.773 278.769 192.245 278.576 189.743Z" fill="black"/>
<path d="M249.853 266.734C246.486 265.37 243.296 263.457 240.426 260.998C235.866 265.232 230.85 268.982 225.46 272.167C227.495 275.111 228.809 278.591 229.147 282.353C236.737 278.076 243.697 272.811 249.853 266.734Z" fill="black"/>
<path d="M189.174 294.547C187.502 291.502 186.551 288.006 186.551 284.287C186.551 284.204 186.551 284.122 186.552 284.039C184.825 284.142 183.085 284.193 181.333 284.193C180.542 284.193 179.754 284.183 178.968 284.162C178.968 284.23 178.969 284.298 178.969 284.366C178.969 288.127 177.996 291.661 176.288 294.729C177.959 294.814 179.641 294.857 181.333 294.857C183.972 294.857 186.587 294.752 189.174 294.547Z" fill="black"/>
<path d="M136.292 283.857C136.382 280.031 137.478 276.454 139.327 273.381C134.363 270.633 129.696 267.414 125.387 263.783C121.986 265.903 118.249 267.403 114.365 268.233C120.889 274.396 128.263 279.669 136.292 283.857Z" fill="black"/>
<path d="M84.484 208.945C87.5121 206.299 90.957 204.242 94.6335 202.818C94.5201 201.001 94.4625 199.169 94.4625 197.323C94.4625 195.323 94.5301 193.339 94.6631 191.372C92.6564 191.997 90.5227 192.334 88.3103 192.334C86.8152 192.334 85.356 192.18 83.9477 191.888C83.8489 193.687 83.7988 195.499 83.7988 197.323C83.7988 201.256 84.0316 205.134 84.484 208.945Z" fill="black"/>
<path d="M95.5318 150.904C98.9837 152.145 102.023 154.251 104.389 156.96C106.145 153.62 108.112 150.409 110.271 147.343C106.815 146.166 103.758 144.127 101.355 141.483C99.2431 144.503 97.2975 147.648 95.5318 150.904Z" fill="black"/>
<path d="M215.467 196.766C215.467 215.685 200.131 231.021 181.213 231.021C162.295 231.021 146.959 215.685 146.959 196.766C146.959 177.848 162.295 162.512 181.213 162.512C200.131 162.512 215.467 177.848 215.467 196.766Z" fill="black"/>
</svg>
