<svg width="1400" height="360" viewBox="0 0 1400 360" fill="none" xmlns="http://www.w3.org/2000/svg">
<path d="M304.296 204.74C290.984 191.428 269.247 191.334 255.841 204.74C242.434 218.146 242.527 239.882 255.841 253.196C269.149 266.504 290.983 266.695 304.389 253.289C307.262 250.416 309.559 246.967 311.283 243.327C316.741 249.937 321.244 257.882 324.016 266.788C324.109 267.457 324.685 268.033 325.257 268.224C325.643 268.415 326.215 268.419 326.503 268.131C326.982 267.846 327.363 267.27 327.461 266.41C328.227 255.686 326.791 244.293 322.961 233.759C319.419 224.09 314.152 215.374 306.97 207.616C306.113 206.558 305.157 205.6 304.296 204.74Z" fill="#E12818"/>
<path d="M168.204 86.6667C158.791 102.971 164.326 123.992 180.746 133.471C197.165 142.951 218.136 137.235 227.55 120.93C236.961 104.631 231.494 83.4912 215.075 74.0116C211.556 71.9803 207.631 70.6544 203.669 69.9308C208.641 62.9486 215.149 56.5418 223.034 51.5602C223.657 51.2966 224.064 50.5911 224.1 49.9889C224.185 49.5674 224.04 49.0136 223.688 48.81C223.289 48.4211 222.634 48.2016 221.778 48.3304C211.221 50.3653 200.587 54.7013 191.404 61.1274C182.981 67.0516 175.926 74.3944 170.291 83.3397C169.49 84.4411 168.813 85.613 168.204 86.6667Z" fill="#E12818"/>
<path d="M107.436 258.414C123.74 267.827 144.761 262.292 154.24 245.873C163.72 229.453 158.005 208.482 141.699 199.068C125.4 189.657 104.26 195.124 94.7807 211.544C92.7493 215.062 91.4235 218.988 90.6999 222.95C83.7176 217.978 77.3109 211.469 72.3292 203.584C72.0656 202.961 71.3601 202.554 70.758 202.518C70.3365 202.433 69.7827 202.578 69.579 202.931C69.1901 203.329 68.9707 203.984 69.0994 204.84C71.1343 215.398 75.4704 226.031 81.8964 235.214C87.8207 243.637 95.1634 250.692 104.109 256.327C105.21 257.128 106.382 257.806 107.436 258.414Z" fill="#E12818"/>
<path d="M113.173 121.136C113.173 132.922 122.728 142.477 134.514 142.477C146.301 142.477 155.856 132.922 155.856 121.136C155.856 109.349 146.301 99.7944 134.514 99.7944C122.728 99.7944 113.173 109.349 113.173 121.136Z" fill="#E12818"/>
<path d="M84.3279 164.992C84.3279 176.778 93.8827 186.333 105.669 186.333C117.456 186.333 127.01 176.778 127.01 164.992C127.01 153.205 117.456 143.65 105.669 143.65C93.8827 143.65 84.3279 153.205 84.3279 164.992Z" fill="#E12818"/>
<path d="M153.645 278.365C153.645 290.152 163.2 299.706 174.986 299.706C186.773 299.706 196.328 290.152 196.328 278.365C196.328 266.579 186.773 257.024 174.986 257.024C163.2 257.024 153.645 266.579 153.645 278.365Z" fill="#E12818"/>
<path d="M240.431 121.136C240.431 132.922 249.986 142.477 261.772 142.477C273.558 142.477 283.113 132.922 283.113 121.136C283.113 109.349 273.558 99.7944 261.772 99.7944C249.986 99.7944 240.431 109.349 240.431 121.136Z" fill="#E12818"/>
<path d="M270.024 162.891C270.024 174.678 279.579 184.233 291.365 184.233C303.152 184.233 312.707 174.678 312.707 162.891C312.707 151.105 303.152 141.55 291.365 141.55C279.579 141.55 270.024 151.105 270.024 162.891Z" fill="#E12818"/>
<path d="M203.909 278.286C203.909 290.072 213.464 299.627 225.251 299.627C237.037 299.627 246.592 290.072 246.592 278.286C246.592 266.499 237.037 256.944 225.251 256.944C213.464 256.944 203.909 266.499 203.909 278.286Z" fill="#E12818"/>
<path d="M231.419 110.827C234.782 112.196 238.04 113.769 241.177 115.531C242.137 111.994 243.984 108.822 246.464 106.268C241.83 103.659 236.961 101.419 231.896 99.5854C232.348 103.299 232.201 107.098 231.419 110.827Z" fill="#E12818"/>
<path d="M163.808 100.213C159.088 102.021 154.545 104.186 150.211 106.673C152.621 109.288 154.387 112.506 155.255 116.076C158.228 114.356 161.313 112.807 164.497 111.442C163.659 107.785 163.416 103.989 163.808 100.213Z" fill="#E12818"/>
<path d="M278.18 134.786C275.889 137.536 272.92 139.701 269.53 141.024C271.444 143.715 273.208 146.519 274.811 149.425C277.09 146.627 280.064 144.417 283.469 143.06C281.843 140.209 280.077 137.448 278.18 134.786Z" fill="#E12818"/>
<path d="M295.938 183.742C294.466 184.064 292.936 184.233 291.368 184.233C289.224 184.233 287.154 183.917 285.201 183.328C285.442 185.961 285.564 188.627 285.564 191.322C285.564 192.604 285.537 193.88 285.482 195.148C289.102 195.723 292.645 196.878 295.96 198.61C296.138 196.204 296.228 193.774 296.228 191.322C296.228 188.772 296.13 186.244 295.938 183.742Z" fill="#E12818"/>
<path d="M267.214 260.733C263.847 259.369 260.657 257.456 257.788 254.997C253.227 259.231 248.211 262.981 242.821 266.166C244.856 269.11 246.17 272.59 246.508 276.352C254.098 272.075 261.059 266.81 267.214 260.733Z" fill="#E12818"/>
<path d="M206.535 288.546C204.863 285.501 203.912 282.005 203.912 278.286C203.912 278.203 203.912 278.121 203.913 278.038C202.187 278.141 200.446 278.192 198.694 278.192C197.903 278.192 197.115 278.182 196.329 278.161C196.33 278.229 196.33 278.297 196.33 278.365C196.33 282.126 195.357 285.66 193.65 288.728C195.32 288.813 197.002 288.856 198.694 288.856C201.334 288.856 203.949 288.751 206.535 288.546Z" fill="#E12818"/>
<path d="M153.654 277.856C153.743 274.03 154.84 270.453 156.689 267.38C151.724 264.632 147.057 261.413 142.748 257.782C139.348 259.902 135.611 261.402 131.726 262.232C138.25 268.396 145.624 273.668 153.654 277.856Z" fill="#E12818"/>
<path d="M101.845 202.944C104.873 200.298 108.318 198.241 111.995 196.817C111.881 195 111.824 193.168 111.824 191.322C111.824 189.322 111.891 187.338 112.024 185.371C110.018 185.996 107.884 186.333 105.672 186.333C104.177 186.333 102.717 186.179 101.309 185.887C101.21 187.686 101.16 189.498 101.16 191.322C101.16 195.255 101.393 199.133 101.845 202.944Z" fill="#E12818"/>
<path d="M112.893 144.903C116.345 146.144 119.385 148.25 121.751 150.959C123.506 147.619 125.473 144.408 127.633 141.342C124.177 140.165 121.119 138.126 118.717 135.482C116.604 138.502 114.659 141.647 112.893 144.903Z" fill="#E12818"/>
<path d="M232.829 190.765C232.829 209.684 217.493 225.02 198.575 225.02C179.656 225.02 164.32 209.684 164.32 190.765C164.32 171.847 179.656 156.511 198.575 156.511C217.493 156.511 232.829 171.847 232.829 190.765Z" fill="#E12818"/>
<path d="M422.39 117.878V241.945C438.737 241.945 451.988 228.693 451.988 212.346V204.37C451.988 192.554 451.693 182.452 451.102 174.063C450.991 172.057 450.853 170.069 450.689 168.096L478.397 211.637H490.449L519.083 167.277C518.841 169.877 518.631 172.494 518.453 175.126C517.98 183.752 517.744 193.5 517.744 204.37V212.523C517.744 228.772 530.916 241.945 547.165 241.945V117.878H520.934L484.968 175.536L449.507 117.878H422.39Z" fill="#E12818"/>
<path fill-rule="evenodd" clip-rule="evenodd" d="M639.552 117.878L590.457 241.945H593.505C609.118 241.945 623.137 232.531 629.088 218.195H674.635C680.586 232.532 694.606 241.945 710.217 241.945H713.992L665.252 117.878H639.552ZM665.977 195.154L659.935 179.025C659.108 176.544 658.162 173.885 657.099 171.049C656.154 168.214 655.208 165.26 654.263 162.188C653.48 159.644 652.738 157.181 652.037 154.799C651.289 157.321 650.495 159.843 649.655 162.365C648.71 165.201 647.705 168.036 646.642 170.872C645.697 173.59 644.692 176.426 643.629 179.38L637.73 195.154H665.977Z" fill="#E12818"/>
<path fill-rule="evenodd" clip-rule="evenodd" d="M757.344 241.945V117.878H809.629C818.727 117.878 827.058 119.414 834.62 122.486C842.182 125.44 848.681 129.694 854.116 135.247C859.551 140.683 863.746 147.24 866.7 154.921C869.654 162.483 871.131 170.813 871.131 179.911C871.131 189.128 869.654 197.517 866.7 205.079C863.746 212.641 859.551 219.199 854.116 224.753C848.681 230.188 842.182 234.442 834.62 237.514C827.176 240.468 818.846 241.945 809.629 241.945H757.344ZM808.743 215.182H787.652V144.641H808.743C813.588 144.641 817.959 145.468 821.859 147.122C825.758 148.777 829.066 151.199 831.784 154.389C834.62 157.461 836.747 161.183 838.165 165.555C839.701 169.809 840.469 174.594 840.469 179.911C840.469 185.229 839.701 190.073 838.165 194.445C836.747 198.699 834.62 202.421 831.784 205.611C829.066 208.683 825.758 211.046 821.859 212.7C817.959 214.355 813.588 215.182 808.743 215.182Z" fill="#E12818"/>
<path fill-rule="evenodd" clip-rule="evenodd" d="M978.051 117.878H952.352L903.257 241.945H906.305C921.917 241.945 935.937 232.531 941.888 218.195H987.435C993.386 232.532 1007.41 241.945 1023.02 241.945H1026.79L978.051 117.878ZM978.777 195.154L972.734 179.025C971.907 176.544 970.962 173.885 969.898 171.049C968.953 168.214 968.008 165.26 967.063 162.188C966.28 159.644 965.538 157.181 964.836 154.799C964.089 157.321 963.295 159.843 962.455 162.365C961.509 165.201 960.505 168.036 959.441 170.872C958.496 173.59 957.492 176.426 956.428 179.38L950.53 195.154H978.777Z" fill="#E12818"/>
<path fill-rule="evenodd" clip-rule="evenodd" d="M1070.14 117.878H1126.33C1134.36 117.878 1141.57 119.591 1147.95 123.018C1154.33 126.445 1159.35 131.171 1163.02 137.197C1166.8 143.105 1168.69 149.899 1168.69 157.579C1168.69 165.378 1166.8 172.349 1163.02 178.493C1159.35 184.638 1154.33 189.541 1147.95 193.204C1147.31 193.561 1146.66 193.9 1146 194.221L1173.65 242.122L1161.51 242.06C1147.65 241.989 1134.9 234.479 1128.11 222.395L1114.71 198.521H1099.03V213.055C1099.03 229.01 1086.1 241.945 1070.14 241.945V117.878ZM1099.03 174.949H1123.67C1126.74 174.949 1129.4 174.299 1131.65 172.999C1134.01 171.581 1135.78 169.691 1136.96 167.327C1138.26 164.964 1138.91 162.247 1138.91 159.175C1138.91 155.984 1138.14 153.208 1136.61 150.844C1135.19 148.481 1133.12 146.65 1130.4 145.35C1127.8 143.932 1124.67 143.223 1121.01 143.223H1099.03V174.949Z" fill="#E12818"/>
<path fill-rule="evenodd" clip-rule="evenodd" d="M1282.2 117.878H1256.5L1207.4 241.945H1210.45C1226.06 241.945 1240.08 232.531 1246.03 218.195H1291.58C1297.53 232.532 1311.55 241.945 1327.16 241.945H1330.94L1282.2 117.878ZM1282.92 195.154L1276.88 179.025C1276.05 176.544 1275.11 173.885 1274.04 171.049C1273.1 168.214 1272.15 165.26 1271.21 162.188C1270.43 159.644 1269.68 157.181 1268.98 154.799C1268.23 157.321 1267.44 159.843 1266.6 162.365C1265.65 165.201 1264.65 168.036 1263.59 170.872C1262.64 173.59 1261.64 176.426 1260.57 179.38L1254.68 195.154H1282.92Z" fill="#E12818"/>
</svg>
