<svg width="360" height="360" viewBox="0 0 360 360" fill="none" xmlns="http://www.w3.org/2000/svg">
<path d="M285.935 210.74C272.623 197.428 250.885 197.334 237.479 210.74C224.073 224.146 224.166 245.882 237.479 259.196C250.788 272.504 272.622 272.695 286.028 259.289C288.901 256.416 291.197 252.967 292.922 249.327C298.379 255.937 302.883 263.882 305.654 272.788C305.748 273.457 306.324 274.033 306.896 274.224C307.281 274.415 307.854 274.419 308.142 274.131C308.62 273.846 309.002 273.27 309.099 272.41C309.866 261.686 308.43 250.293 304.6 239.759C301.057 230.09 295.791 221.375 288.609 213.616C287.752 212.558 286.795 211.6 285.935 210.74Z" fill="white"/>
<path d="M149.843 92.6667C140.43 108.971 145.965 129.992 162.384 139.471C178.804 148.951 199.775 143.236 209.189 126.93C218.6 110.631 213.133 89.4913 196.713 80.0116C193.195 77.9803 189.269 76.6545 185.307 75.9308C190.279 68.9486 196.788 62.5418 204.673 57.5602C205.296 57.2966 205.703 56.5911 205.739 55.9889C205.824 55.5674 205.679 55.0136 205.326 54.81C204.928 54.4211 204.273 54.2016 203.416 54.3304C192.859 56.3653 182.226 60.7013 173.043 67.1274C164.62 73.0516 157.564 80.3944 151.93 89.3397C151.129 90.4411 150.451 91.613 149.843 92.6667Z" fill="white"/>
<path d="M89.0744 264.414C105.379 273.827 126.399 268.292 135.879 251.873C145.359 235.453 139.643 214.482 123.338 205.068C107.038 195.657 85.899 201.124 76.4193 217.544C74.388 221.062 73.0622 224.988 72.3385 228.95C65.3563 223.978 58.9495 217.469 53.9679 209.584C53.7043 208.961 52.9988 208.554 52.3966 208.518C51.9751 208.433 51.4213 208.578 51.2177 208.931C50.8288 209.329 50.6093 209.984 50.7381 210.84C52.773 221.398 57.109 232.031 63.5351 241.214C69.4593 249.637 76.8021 256.693 85.7474 262.327C86.8488 263.128 88.0207 263.806 89.0744 264.414Z" fill="white"/>
<path d="M94.8118 127.136C94.8118 138.922 104.367 148.477 116.153 148.477C127.939 148.477 137.494 138.922 137.494 127.136C137.494 115.349 127.939 105.794 116.153 105.794C104.367 105.794 94.8118 115.349 94.8118 127.136Z" fill="white"/>
<path d="M65.9666 170.992C65.9666 182.778 75.5214 192.333 87.3078 192.333C99.0942 192.333 108.649 182.778 108.649 170.992C108.649 159.205 99.0942 149.65 87.3078 149.65C75.5214 149.65 65.9666 159.205 65.9666 170.992Z" fill="white"/>
<path d="M135.284 284.365C135.284 296.152 144.839 305.707 156.625 305.707C168.411 305.707 177.966 296.152 177.966 284.365C177.966 272.579 168.411 263.024 156.625 263.024C144.839 263.024 135.284 272.579 135.284 284.365Z" fill="white"/>
<path d="M222.07 127.136C222.07 138.922 231.624 148.477 243.411 148.477C255.197 148.477 264.752 138.922 264.752 127.136C264.752 115.349 255.197 105.794 243.411 105.794C231.624 105.794 222.07 115.349 222.07 127.136Z" fill="white"/>
<path d="M251.663 168.891C251.663 180.678 261.218 190.233 273.004 190.233C284.791 190.233 294.345 180.678 294.345 168.891C294.345 157.105 284.791 147.55 273.004 147.55C261.218 147.55 251.663 157.105 251.663 168.891Z" fill="white"/>
<path d="M185.548 284.286C185.548 296.072 195.103 305.627 206.889 305.627C218.676 305.627 228.231 296.072 228.231 284.286C228.231 272.499 218.676 262.945 206.889 262.945C195.103 262.945 185.548 272.499 185.548 284.286Z" fill="white"/>
<path d="M213.058 116.828C216.421 118.197 219.678 119.77 222.816 121.532C223.776 117.995 225.623 114.823 228.103 112.269C223.469 109.66 218.599 107.42 213.535 105.586C213.986 109.3 213.84 113.099 213.058 116.828Z" fill="white"/>
<path d="M145.447 106.214C140.727 108.022 136.183 110.187 131.849 112.674C134.26 115.289 136.026 118.507 136.893 122.077C139.867 120.357 142.952 118.808 146.135 117.443C145.298 113.786 145.055 109.99 145.447 106.214Z" fill="white"/>
<path d="M259.819 140.787C257.528 143.537 254.559 145.702 251.169 147.025C253.083 149.716 254.847 152.52 256.45 155.426C258.729 152.628 261.702 150.418 265.108 149.061C263.482 146.21 261.715 143.449 259.819 140.787Z" fill="white"/>
<path d="M277.576 189.743C276.104 190.065 274.575 190.234 273.007 190.234C270.863 190.234 268.792 189.918 266.84 189.329C267.08 191.962 267.203 194.628 267.203 197.323C267.203 198.605 267.175 199.881 267.12 201.149C270.74 201.724 274.284 202.879 277.598 204.611C277.776 202.205 277.867 199.775 277.867 197.323C277.867 194.773 277.769 192.245 277.576 189.743Z" fill="white"/>
<path d="M248.853 266.734C245.486 265.37 242.296 263.457 239.426 260.998C234.866 265.232 229.85 268.982 224.46 272.167C226.495 275.111 227.809 278.591 228.147 282.353C235.737 278.076 242.697 272.811 248.853 266.734Z" fill="white"/>
<path d="M188.174 294.547C186.502 291.502 185.551 288.006 185.551 284.287C185.551 284.204 185.551 284.122 185.552 284.039C183.825 284.142 182.085 284.193 180.333 284.193C179.542 284.193 178.754 284.183 177.968 284.162C177.968 284.23 177.969 284.298 177.969 284.366C177.969 288.127 176.996 291.661 175.288 294.729C176.959 294.814 178.641 294.857 180.333 294.857C182.972 294.857 185.587 294.752 188.174 294.547Z" fill="white"/>
<path d="M135.292 283.857C135.382 280.031 136.478 276.454 138.327 273.381C133.363 270.633 128.696 267.414 124.387 263.783C120.986 265.903 117.249 267.403 113.365 268.233C119.889 274.396 127.263 279.669 135.292 283.857Z" fill="white"/>
<path d="M83.484 208.945C86.5121 206.299 89.957 204.242 93.6335 202.818C93.5201 201.001 93.4625 199.169 93.4625 197.323C93.4625 195.323 93.5301 193.339 93.6631 191.372C91.6564 191.997 89.5227 192.334 87.3103 192.334C85.8152 192.334 84.356 192.18 82.9477 191.888C82.8489 193.687 82.7988 195.499 82.7988 197.323C82.7988 201.256 83.0316 205.134 83.484 208.945Z" fill="white"/>
<path d="M94.5318 150.904C97.9837 152.145 101.023 154.251 103.389 156.96C105.145 153.62 107.112 150.409 109.271 147.343C105.815 146.166 102.758 144.127 100.355 141.483C98.2431 144.503 96.2975 147.648 94.5318 150.904Z" fill="white"/>
<path d="M214.467 196.766C214.467 215.685 199.131 231.021 180.213 231.021C161.295 231.021 145.959 215.685 145.959 196.766C145.959 177.848 161.295 162.512 180.213 162.512C199.131 162.512 214.467 177.848 214.467 196.766Z" fill="white"/>
</svg>
