<svg width="1200" height="360" viewBox="0 0 1200 360" fill="none" xmlns="http://www.w3.org/2000/svg">
<path d="M145.727 117.878V241.945C162.074 241.945 175.325 228.693 175.325 212.346V204.37C175.325 192.554 175.03 182.452 174.439 174.063C174.328 172.057 174.19 170.069 174.026 168.096L201.734 211.637H213.786L242.42 167.277C242.177 169.877 241.967 172.494 241.79 175.126C241.317 183.752 241.081 193.5 241.081 204.37V212.523C241.081 228.772 254.253 241.945 270.502 241.945V117.878H244.271L208.305 175.536L172.844 117.878H145.727Z" fill="#E12818"/>
<path fill-rule="evenodd" clip-rule="evenodd" d="M362.889 117.878L313.794 241.945H316.842C332.455 241.945 346.474 232.531 352.425 218.195H397.972C403.923 232.532 417.943 241.945 433.554 241.945H437.329L388.589 117.878H362.889ZM389.314 195.154L383.272 179.025C382.444 176.544 381.499 173.885 380.436 171.049C379.491 168.214 378.545 165.26 377.6 162.188C376.817 159.644 376.075 157.181 375.373 154.799C374.626 157.321 373.832 159.843 372.992 162.365C372.047 165.201 371.042 168.036 369.979 170.872C369.033 173.59 368.029 176.426 366.966 179.38L361.067 195.154H389.314Z" fill="#E12818"/>
<path fill-rule="evenodd" clip-rule="evenodd" d="M480.681 241.945V117.878H532.966C542.064 117.878 550.395 119.414 557.957 122.486C565.519 125.44 572.018 129.694 577.453 135.247C582.888 140.683 587.083 147.24 590.037 154.921C592.991 162.483 594.468 170.813 594.468 179.911C594.468 189.128 592.991 197.517 590.037 205.079C587.083 212.641 582.888 219.199 577.453 224.753C572.018 230.188 565.519 234.442 557.957 237.514C550.513 240.468 542.182 241.945 532.966 241.945H480.681ZM532.08 215.182H510.989V144.641H532.08C536.924 144.641 541.296 145.468 545.196 147.122C549.095 148.777 552.403 151.199 555.121 154.389C557.957 157.461 560.084 161.183 561.501 165.555C563.037 169.809 563.806 174.594 563.806 179.911C563.806 185.229 563.037 190.073 561.501 194.445C560.084 198.699 557.957 202.421 555.121 205.611C552.403 208.683 549.095 211.046 545.196 212.7C541.296 214.355 536.924 215.182 532.08 215.182Z" fill="#E12818"/>
<path fill-rule="evenodd" clip-rule="evenodd" d="M701.388 117.878H675.689L626.594 241.945H629.642C645.254 241.945 659.273 232.531 665.225 218.195H710.771C716.723 232.532 730.742 241.945 746.354 241.945H750.129L701.388 117.878ZM702.114 195.154L696.071 179.025C695.244 176.544 694.299 173.885 693.235 171.049C692.29 168.214 691.345 165.26 690.4 162.188C689.617 159.644 688.875 157.181 688.173 154.799C687.426 157.321 686.632 159.843 685.791 162.365C684.846 165.201 683.842 168.036 682.778 170.872C681.833 173.59 680.829 176.426 679.765 179.38L673.867 195.154H702.114Z" fill="#E12818"/>
<path fill-rule="evenodd" clip-rule="evenodd" d="M793.48 117.878H849.665C857.7 117.878 864.907 119.591 871.288 123.018C877.669 126.445 882.69 131.171 886.353 137.197C890.134 143.105 892.025 149.899 892.025 157.579C892.025 165.378 890.134 172.349 886.353 178.493C882.69 184.638 877.669 189.541 871.288 193.204C870.646 193.561 869.995 193.9 869.336 194.221L896.987 242.122L884.847 242.06C870.988 241.989 858.234 234.479 851.449 222.395L838.043 198.521H822.37V213.055C822.37 229.01 809.436 241.945 793.48 241.945V117.878ZM822.37 174.949H847.006C850.078 174.949 852.737 174.299 854.982 172.999C857.345 171.581 859.118 169.691 860.299 167.327C861.599 164.964 862.249 162.247 862.249 159.175C862.249 155.984 861.481 153.208 859.945 150.844C858.527 148.481 856.459 146.65 853.741 145.35C851.142 143.932 848.011 143.223 844.348 143.223H822.37V174.949Z" fill="#E12818"/>
<path fill-rule="evenodd" clip-rule="evenodd" d="M1005.53 117.878H979.834L930.739 241.945H933.787C949.4 241.945 963.419 232.531 969.37 218.195H1014.92C1020.87 232.532 1034.89 241.945 1050.5 241.945H1054.27L1005.53 117.878ZM1006.26 195.154L1000.22 179.025C999.389 176.544 998.444 173.885 997.381 171.049C996.435 168.214 995.49 165.26 994.545 162.188C993.762 159.644 993.02 157.181 992.318 154.799C991.571 157.321 990.777 159.843 989.937 162.365C988.991 165.201 987.987 168.036 986.924 170.872C985.978 173.59 984.974 176.426 983.911 179.38L978.012 195.154H1006.26Z" fill="#E12818"/>
</svg>
